<?xml version="1.0" standalone="no"?>
<!DOCTYPE svg PUBLIC "-//W3C//DTD SVG 20010904//EN"
 "http://www.w3.org/TR/2001/REC-SVG-20010904/DTD/svg10.dtd">
<svg version="1.0" xmlns="http://www.w3.org/2000/svg"
 width="512.000000pt" height="512.000000pt" viewBox="0 0 512.000000 512.000000"
 preserveAspectRatio="xMidYMid meet">
<metadata>
Created by potrace 1.16, written by Peter Selinger 2001-2019
</metadata>
<g transform="translate(0.000000,512.000000) scale(0.100000,-0.100000)"
fill="#fff"  stroke="none">
<path d="M1724 4046 c-45 -20 -99 -80 -112 -125 -23 -77 -9 -164 36 -215 9
-10 311 -271 670 -578 358 -308 652 -562 651 -566 0 -4 -300 -263 -667 -577
-726 -621 -712 -606 -712 -710 0 -69 38 -144 92 -181 50 -35 152 -45 209 -21
20 8 384 312 810 676 850 727 829 706 829 815 0 105 23 82 -810 798 -421 362
-783 666 -806 678 -47 24 -142 27 -190 6z"/>
</g>
</svg>
