<?xml version="1.0" standalone="no"?>
<!DOCTYPE svg PUBLIC "-//W3C//DTD SVG 20010904//EN"
 "http://www.w3.org/TR/2001/REC-SVG-20010904/DTD/svg10.dtd">
<svg version="1.0" xmlns="http://www.w3.org/2000/svg"
 width="512.000000pt" height="512.000000pt" viewBox="0 0 512.000000 512.000000"
 preserveAspectRatio="xMidYMid meet">
<metadata>
Created by potrace 1.16, written by Peter Selinger 2001-2019
</metadata>
<g transform="translate(0.000000,512.000000) scale(0.100000,-0.100000)"
fill="#3b5d50" stroke="none">
<path d="M4460 5104 c-31 -13 -230 -209 -230 -226 0 -3 149 -153 332 -332
l332 -327 99 98 c54 54 105 110 113 125 9 17 14 58 14 114 l0 88 -217 219
c-120 120 -235 227 -255 238 -45 23 -138 25 -188 3z"/>
<path d="M2090 4700 l0 -270 -46 0 c-76 0 -250 -29 -394 -66 -612 -157 -1132
-579 -1418 -1151 -100 -198 -159 -376 -203 -608 -33 -172 -38 -514 -10 -706
106 -732 561 -1356 1226 -1679 316 -154 608 -220 975 -220 185 0 332 15 492
51 805 178 1456 813 1658 1618 50 198 64 324 64 551 -1 296 -42 546 -130 775
l-37 97 -218 -219 -218 -218 19 -85 c80 -355 31 -747 -135 -1085 -226 -463
-655 -795 -1169 -907 -87 -19 -132 -22 -326 -22 -197 -1 -238 2 -330 22 -662
144 -1150 625 -1306 1287 -27 114 -29 132 -28 350 0 200 2 243 22 328 79 355
236 634 495 883 255 246 613 416 950 450 l67 7 0 -297 c0 -163 3 -296 8 -296
4 0 196 189 427 420 l420 420 -420 420 c-231 231 -423 420 -427 420 -5 0 -8
-121 -8 -270z"/>
<path d="M3029 3677 c-574 -579 -1100 -1110 -1169 -1180 l-124 -127 329 -330
c182 -182 333 -330 337 -330 3 0 534 532 1179 1182 l1172 1183 -334 327 c-184
181 -337 328 -340 328 -3 0 -476 -474 -1050 -1053z"/>
<path d="M1521 1989 l-54 -221 167 -167 166 -166 217 54 c120 30 222 56 226
58 7 4 -644 653 -662 661 -4 1 -31 -97 -60 -219z"/>
<path d="M1445 1678 c-13 -42 -83 -344 -80 -347 4 -4 343 78 359 87 9 5 -253
272 -267 272 -4 0 -9 -6 -12 -12z"/>
</g>
</svg>
